%TF.GenerationSoftware,KiCad,Pcbnew,10.0.3*%
%TF.CreationDate,2026-09-28T13:34:27+02:00*%
%TF.ProjectId,bldc-75v,626c6463-2d37-4357-962e-6b696361645f,rev?*%
%TF.SameCoordinates,Original*%
%TF.FileFunction,Soldermask,Top*%
%TF.FilePolarity,Negative*%
%FSLAX46Y46*%
G04 Gerber Fmt 4.6, Leading zero omitted, Abs format (unit mm)*
G04 Created by KiCad (PCBNEW 10.0.3) date 2026-09-28 13:34:27*
%MOMM*%
%LPD*%
G01*
G04 APERTURE LIST*
G04 Aperture macros list*
%AMRoundRect*
0 Rectangle with rounded corners*
0 $1 Rounding radius*
0 $2 $3 $4 $5 $6 $7 $8 $9 X,Y pos of 4 corners*
0 Add a 4 corners polygon primitive as box body*
4,1,4,$2,$3,$4,$5,$6,$7,$8,$9,$2,$3,0*
0 Add four circle primitives for the rounded corners*
1,1,$1+$1,$2,$3*
1,1,$1+$1,$4,$5*
1,1,$1+$1,$6,$7*
1,1,$1+$1,$8,$9*
0 Add four rect primitives between the rounded corners*
20,1,$1+$1,$2,$3,$4,$5,0*
20,1,$1+$1,$4,$5,$6,$7,0*
20,1,$1+$1,$6,$7,$8,$9,0*
20,1,$1+$1,$8,$9,$2,$3,0*%
%AMFreePoly0*
4,1,17,2.675000,1.605000,1.875000,1.605000,1.875000,0.935000,2.675000,0.935000,2.675000,0.335000,1.875000,0.335000,1.875000,-0.335000,2.675000,-0.335000,2.675000,-0.935000,1.875000,-0.935000,1.875000,-1.605000,2.675000,-1.605000,2.675000,-2.205000,-1.875000,-2.205000,-1.875000,2.205000,2.675000,2.205000,2.675000,1.605000,2.675000,1.605000,$1*%
%AMFreePoly1*
4,1,23,0.500000,-0.750000,0.000000,-0.750000,0.000000,-0.745722,-0.065263,-0.745722,-0.191342,-0.711940,-0.304381,-0.646677,-0.396677,-0.554381,-0.461940,-0.441342,-0.495722,-0.315263,-0.495722,-0.250000,-0.500000,-0.250000,-0.500000,0.250000,-0.495722,0.250000,-0.495722,0.315263,-0.461940,0.441342,-0.396677,0.554381,-0.304381,0.646677,-0.191342,0.711940,-0.065263,0.745722,0.000000,0.745722,
0.000000,0.750000,0.500000,0.750000,0.500000,-0.750000,0.500000,-0.750000,$1*%
%AMFreePoly2*
4,1,23,0.000000,0.745722,0.065263,0.745722,0.191342,0.711940,0.304381,0.646677,0.396677,0.554381,0.461940,0.441342,0.495722,0.315263,0.495722,0.250000,0.500000,0.250000,0.500000,-0.250000,0.495722,-0.250000,0.495722,-0.315263,0.461940,-0.441342,0.396677,-0.554381,0.304381,-0.646677,0.191342,-0.711940,0.065263,-0.745722,0.000000,-0.745722,0.000000,-0.750000,-0.500000,-0.750000,
-0.500000,0.750000,0.000000,0.750000,0.000000,0.745722,0.000000,0.745722,$1*%
G04 Aperture macros list end*
%ADD10C,1.000000*%
%ADD11RoundRect,0.200000X-0.275000X0.200000X-0.275000X-0.200000X0.275000X-0.200000X0.275000X0.200000X0*%
%ADD12C,3.200000*%
%ADD13RoundRect,0.250000X0.650000X-0.325000X0.650000X0.325000X-0.650000X0.325000X-0.650000X-0.325000X0*%
%ADD14RoundRect,0.200000X0.275000X-0.200000X0.275000X0.200000X-0.275000X0.200000X-0.275000X-0.200000X0*%
%ADD15RoundRect,0.218750X-0.218750X-0.256250X0.218750X-0.256250X0.218750X0.256250X-0.218750X0.256250X0*%
%ADD16RoundRect,0.225000X0.225000X0.250000X-0.225000X0.250000X-0.225000X-0.250000X0.225000X-0.250000X0*%
%ADD17RoundRect,0.225000X-0.225000X-0.250000X0.225000X-0.250000X0.225000X0.250000X-0.225000X0.250000X0*%
%ADD18RoundRect,0.200000X0.200000X0.275000X-0.200000X0.275000X-0.200000X-0.275000X0.200000X-0.275000X0*%
%ADD19RoundRect,0.225000X0.250000X-0.225000X0.250000X0.225000X-0.250000X0.225000X-0.250000X-0.225000X0*%
%ADD20RoundRect,0.250000X-1.425000X0.362500X-1.425000X-0.362500X1.425000X-0.362500X1.425000X0.362500X0*%
%ADD21RoundRect,0.200000X-0.200000X-0.275000X0.200000X-0.275000X0.200000X0.275000X-0.200000X0.275000X0*%
%ADD22RoundRect,0.032500X0.397500X0.097500X-0.397500X0.097500X-0.397500X-0.097500X0.397500X-0.097500X0*%
%ADD23RoundRect,0.032500X0.097500X0.397500X-0.097500X0.397500X-0.097500X-0.397500X0.097500X-0.397500X0*%
%ADD24R,4.600000X4.975000*%
%ADD25RoundRect,0.250000X-0.625000X0.312500X-0.625000X-0.312500X0.625000X-0.312500X0.625000X0.312500X0*%
%ADD26RoundRect,0.250000X1.100000X-0.325000X1.100000X0.325000X-1.100000X0.325000X-1.100000X-0.325000X0*%
%ADD27RoundRect,0.250000X0.625000X-0.312500X0.625000X0.312500X-0.625000X0.312500X-0.625000X-0.312500X0*%
%ADD28RoundRect,0.250000X-0.600000X-0.725000X0.600000X-0.725000X0.600000X0.725000X-0.600000X0.725000X0*%
%ADD29O,1.700000X1.950000*%
%ADD30RoundRect,0.135000X-0.135000X-0.185000X0.135000X-0.185000X0.135000X0.185000X-0.135000X0.185000X0*%
%ADD31RoundRect,0.250000X-1.000000X1.400000X-1.000000X-1.400000X1.000000X-1.400000X1.000000X1.400000X0*%
%ADD32FreePoly0,90.000000*%
%ADD33RoundRect,0.150000X0.150000X-0.450000X0.150000X0.450000X-0.150000X0.450000X-0.150000X-0.450000X0*%
%ADD34RoundRect,0.250000X-0.650000X0.325000X-0.650000X-0.325000X0.650000X-0.325000X0.650000X0.325000X0*%
%ADD35RoundRect,0.250001X-0.949999X-0.949999X0.949999X-0.949999X0.949999X0.949999X-0.949999X0.949999X0*%
%ADD36C,2.400000*%
%ADD37R,1.700000X1.700000*%
%ADD38C,1.700000*%
%ADD39RoundRect,0.225000X-0.250000X0.225000X-0.250000X-0.225000X0.250000X-0.225000X0.250000X0.225000X0*%
%ADD40RoundRect,0.250000X-0.475000X0.250000X-0.475000X-0.250000X0.475000X-0.250000X0.475000X0.250000X0*%
%ADD41C,2.200000*%
%ADD42RoundRect,0.250000X-0.312500X-0.625000X0.312500X-0.625000X0.312500X0.625000X-0.312500X0.625000X0*%
%ADD43RoundRect,0.112500X-0.112500X0.187500X-0.112500X-0.187500X0.112500X-0.187500X0.112500X0.187500X0*%
%ADD44R,5.400000X2.900000*%
%ADD45RoundRect,0.250000X-0.725000X0.600000X-0.725000X-0.600000X0.725000X-0.600000X0.725000X0.600000X0*%
%ADD46O,1.950000X1.700000*%
%ADD47RoundRect,0.150000X0.150000X-0.825000X0.150000X0.825000X-0.150000X0.825000X-0.150000X-0.825000X0*%
%ADD48FreePoly1,0.000000*%
%ADD49FreePoly2,0.000000*%
%ADD50RoundRect,0.250002X-2.749998X-2.749998X2.749998X-2.749998X2.749998X2.749998X-2.749998X2.749998X0*%
%ADD51C,6.000000*%
%ADD52R,2.900000X5.400000*%
%ADD53R,0.620000X0.200000*%
%ADD54R,0.620000X0.400000*%
%ADD55RoundRect,0.250000X0.500000X-0.950000X0.500000X0.950000X-0.500000X0.950000X-0.500000X-0.950000X0*%
%ADD56RoundRect,0.250000X0.500000X-0.275000X0.500000X0.275000X-0.500000X0.275000X-0.500000X-0.275000X0*%
%ADD57RoundRect,0.150000X-0.587500X-0.150000X0.587500X-0.150000X0.587500X0.150000X-0.587500X0.150000X0*%
%ADD58RoundRect,0.250002X2.749998X2.749998X-2.749998X2.749998X-2.749998X-2.749998X2.749998X-2.749998X0*%
%ADD59RoundRect,0.150000X-0.650000X-0.150000X0.650000X-0.150000X0.650000X0.150000X-0.650000X0.150000X0*%
%ADD60R,2.410000X3.100000*%
G04 APERTURE END LIST*
D10*
X144752380Y-42623000D02*
X145466666Y-42861095D01*
X145466666Y-42861095D02*
X146657142Y-42861095D01*
X146657142Y-42861095D02*
X147133333Y-42623000D01*
X147133333Y-42623000D02*
X147371428Y-42384904D01*
X147371428Y-42384904D02*
X147609523Y-41908714D01*
X147609523Y-41908714D02*
X147609523Y-41432523D01*
X147609523Y-41432523D02*
X147371428Y-40956333D01*
X147371428Y-40956333D02*
X147133333Y-40718238D01*
X147133333Y-40718238D02*
X146657142Y-40480142D01*
X146657142Y-40480142D02*
X145704761Y-40242047D01*
X145704761Y-40242047D02*
X145228571Y-40003952D01*
X145228571Y-40003952D02*
X144990476Y-39765857D01*
X144990476Y-39765857D02*
X144752380Y-39289666D01*
X144752380Y-39289666D02*
X144752380Y-38813476D01*
X144752380Y-38813476D02*
X144990476Y-38337285D01*
X144990476Y-38337285D02*
X145228571Y-38099190D01*
X145228571Y-38099190D02*
X145704761Y-37861095D01*
X145704761Y-37861095D02*
X146895238Y-37861095D01*
X146895238Y-37861095D02*
X147609523Y-38099190D01*
X149752381Y-40242047D02*
X151419047Y-40242047D01*
X152133333Y-42861095D02*
X149752381Y-42861095D01*
X149752381Y-42861095D02*
X149752381Y-37861095D01*
X149752381Y-37861095D02*
X152133333Y-37861095D01*
X154276191Y-42861095D02*
X154276191Y-37861095D01*
X154276191Y-37861095D02*
X155942857Y-41432523D01*
X155942857Y-41432523D02*
X157609524Y-37861095D01*
X157609524Y-37861095D02*
X157609524Y-42861095D01*
%TO.C,JP1*%
G36*
X135500000Y-42850000D02*
G01*
X135800000Y-42850000D01*
X135800000Y-44350000D01*
X135500000Y-44350000D01*
X135500000Y-42850000D01*
G37*
%TD*%
D11*
%TO.C,R25*%
X204800000Y-120700000D03*
X204800000Y-122350000D03*
%TD*%
D12*
%TO.C,H3*%
X121960000Y-131900000D03*
%TD*%
%TO.C,H1*%
X121640000Y-34450000D03*
%TD*%
D13*
%TO.C,C20*%
X246060000Y-62975000D03*
X246060000Y-60025000D03*
%TD*%
D14*
%TO.C,R56*%
X186500000Y-116950000D03*
X186500000Y-115300000D03*
%TD*%
D15*
%TO.C,D4*%
X174200000Y-130200000D03*
X175775000Y-130200000D03*
%TD*%
D16*
%TO.C,C49*%
X191400000Y-56300000D03*
X189850000Y-56300000D03*
%TD*%
D17*
%TO.C,C4*%
X239850000Y-92537500D03*
X241400000Y-92537500D03*
%TD*%
D18*
%TO.C,R17*%
X203400000Y-60400000D03*
X201750000Y-60400000D03*
%TD*%
D14*
%TO.C,R61*%
X191400000Y-54325000D03*
X191400000Y-52675000D03*
%TD*%
D11*
%TO.C,R65*%
X154685000Y-54300000D03*
X154685000Y-55950000D03*
%TD*%
D17*
%TO.C,C45*%
X188025000Y-118800000D03*
X189575000Y-118800000D03*
%TD*%
D14*
%TO.C,R71*%
X135900000Y-123400000D03*
X135900000Y-121750000D03*
%TD*%
D19*
%TO.C,C27*%
X238600000Y-104575000D03*
X238600000Y-103025000D03*
%TD*%
D20*
%TO.C,R14*%
X214200000Y-85537500D03*
X214200000Y-91462500D03*
%TD*%
D17*
%TO.C,C66*%
X139650000Y-48200000D03*
X141200000Y-48200000D03*
%TD*%
D16*
%TO.C,C17*%
X203300000Y-62900000D03*
X201750000Y-62900000D03*
%TD*%
D17*
%TO.C,C50*%
X217425000Y-132325000D03*
X218975000Y-132325000D03*
%TD*%
D21*
%TO.C,R12*%
X206975000Y-90600000D03*
X208625000Y-90600000D03*
%TD*%
D22*
%TO.C,U1*%
X235757500Y-106850000D03*
X235757500Y-106350000D03*
X235757500Y-105850000D03*
X235757500Y-105350000D03*
X235757500Y-104850000D03*
X235757500Y-104350000D03*
X235757500Y-103850000D03*
X235757500Y-103350000D03*
X235757500Y-102850000D03*
X235757500Y-102350000D03*
X235757500Y-101850000D03*
X235757500Y-101350000D03*
D23*
X235072500Y-100665000D03*
X234572500Y-100665000D03*
X234072500Y-100665000D03*
X233572500Y-100665000D03*
X233072500Y-100665000D03*
X232572500Y-100665000D03*
X232072500Y-100665000D03*
X231572500Y-100665000D03*
X231072500Y-100665000D03*
X230572500Y-100665000D03*
X230072500Y-100665000D03*
X229572500Y-100665000D03*
D22*
X228887500Y-101350000D03*
X228887500Y-101850000D03*
X228887500Y-102350000D03*
X228887500Y-102850000D03*
X228887500Y-103350000D03*
X228887500Y-103850000D03*
X228887500Y-104350000D03*
X228887500Y-104850000D03*
X228887500Y-105350000D03*
X228887500Y-105850000D03*
X228887500Y-106350000D03*
X228887500Y-106850000D03*
D23*
X229572500Y-107535000D03*
X230072500Y-107535000D03*
X230572500Y-107535000D03*
X231072500Y-107535000D03*
X231572500Y-107535000D03*
X232072500Y-107535000D03*
X232572500Y-107535000D03*
X233072500Y-107535000D03*
X233572500Y-107535000D03*
X234072500Y-107535000D03*
X234572500Y-107535000D03*
X235072500Y-107535000D03*
D24*
X232322500Y-104100000D03*
%TD*%
D25*
%TO.C,R13*%
X206000000Y-60000000D03*
X206000000Y-62925000D03*
%TD*%
D26*
%TO.C,C51*%
X153585000Y-50450000D03*
X153585000Y-47500000D03*
%TD*%
D27*
%TO.C,R37*%
X226500000Y-114825000D03*
X226500000Y-111900000D03*
%TD*%
D14*
%TO.C,R58*%
X207100000Y-120650000D03*
X207100000Y-119000000D03*
%TD*%
D28*
%TO.C,J9*%
X131000000Y-131000000D03*
D29*
X133500000Y-131000000D03*
X136000000Y-131000000D03*
X138500000Y-131000000D03*
%TD*%
D30*
%TO.C,TH1*%
X227490000Y-82700000D03*
X228510000Y-82700000D03*
%TD*%
D31*
%TO.C,D8*%
X228200000Y-61600000D03*
X221400000Y-61600000D03*
%TD*%
D17*
%TO.C,C12*%
X221525000Y-93037500D03*
X223075000Y-93037500D03*
%TD*%
D32*
%TO.C,Q2*%
X250060000Y-78850000D03*
D33*
X248155000Y-82225000D03*
X249425000Y-82225000D03*
X250694999Y-82225000D03*
X251964999Y-82225000D03*
%TD*%
D34*
%TO.C,C33*%
X233700000Y-112602500D03*
X233700000Y-115552500D03*
%TD*%
D16*
%TO.C,C30*%
X239975000Y-106600000D03*
X238425000Y-106600000D03*
%TD*%
D25*
%TO.C,R3*%
X204900000Y-85800000D03*
X204900000Y-88725000D03*
%TD*%
D35*
%TO.C,C21*%
X222300000Y-49300000D03*
D36*
X229800000Y-49300000D03*
%TD*%
D12*
%TO.C,U2*%
X147030000Y-116420000D03*
X199100000Y-83400000D03*
X148300000Y-68160000D03*
D37*
X150840000Y-124040000D03*
D38*
X150840000Y-121500000D03*
X153380000Y-124040000D03*
X153380000Y-121500000D03*
X155920000Y-124040000D03*
X155920000Y-121500000D03*
X158460000Y-124040000D03*
X158460000Y-121500000D03*
X161000000Y-124040000D03*
X161000000Y-121500000D03*
X163540000Y-124040000D03*
X163540000Y-121500000D03*
X166080000Y-124040000D03*
X166080000Y-121500000D03*
X168620000Y-124040000D03*
X168620000Y-121500000D03*
X171160000Y-124040000D03*
X171160000Y-121500000D03*
X173700000Y-124040000D03*
X173700000Y-121500000D03*
X176240000Y-124040000D03*
X176240000Y-121500000D03*
X178780000Y-124040000D03*
X178780000Y-121500000D03*
X181320000Y-124040000D03*
X181320000Y-121500000D03*
X183860000Y-124040000D03*
X183860000Y-121500000D03*
X186400000Y-124040000D03*
X186400000Y-121500000D03*
X188940000Y-124040000D03*
X188940000Y-121500000D03*
X191480000Y-124040000D03*
X191480000Y-121500000D03*
X194020000Y-124040000D03*
X194020000Y-121500000D03*
X196560000Y-124040000D03*
X196560000Y-121500000D03*
D37*
X150840000Y-63080000D03*
D38*
X150840000Y-60540000D03*
X153380000Y-63080000D03*
X153380000Y-60540000D03*
X155920000Y-63080000D03*
X155920000Y-60540000D03*
X158460000Y-63080000D03*
X158460000Y-60540000D03*
X161000000Y-63080000D03*
X161000000Y-60540000D03*
X163540000Y-63080000D03*
X163540000Y-60540000D03*
X166080000Y-63080000D03*
X166080000Y-60540000D03*
X168620000Y-63080000D03*
X168620000Y-60540000D03*
X171160000Y-63080000D03*
X171160000Y-60540000D03*
X173700000Y-63080000D03*
X173700000Y-60540000D03*
X176240000Y-63080000D03*
X176240000Y-60540000D03*
X178780000Y-63080000D03*
X178780000Y-60540000D03*
X181320000Y-63080000D03*
X181320000Y-60540000D03*
X183860000Y-63080000D03*
X183860000Y-60540000D03*
X186400000Y-63080000D03*
X186400000Y-60540000D03*
X188940000Y-63080000D03*
X188940000Y-60540000D03*
X191480000Y-63080000D03*
X191480000Y-60540000D03*
X194020000Y-63080000D03*
X194020000Y-60540000D03*
X196560000Y-63080000D03*
X196560000Y-60540000D03*
%TD*%
D26*
%TO.C,C52*%
X149685000Y-50550000D03*
X149685000Y-47600000D03*
%TD*%
D14*
%TO.C,R33*%
X240000000Y-113250000D03*
X240000000Y-111600000D03*
%TD*%
D16*
%TO.C,C31*%
X234350000Y-109400000D03*
X232800000Y-109400000D03*
%TD*%
D39*
%TO.C,C34*%
X238300000Y-111600000D03*
X238300000Y-113150000D03*
%TD*%
D17*
%TO.C,C47*%
X174925000Y-56300000D03*
X176475000Y-56300000D03*
%TD*%
D32*
%TO.C,Q1*%
X250060000Y-68850000D03*
D33*
X248155000Y-72225000D03*
X249425000Y-72225000D03*
X250694999Y-72225000D03*
X251964999Y-72225000D03*
%TD*%
D26*
%TO.C,C60*%
X218060000Y-62975000D03*
X218060000Y-60025000D03*
%TD*%
D40*
%TO.C,C24*%
X235700000Y-120900000D03*
X235700000Y-122800000D03*
%TD*%
D12*
%TO.C,H4*%
X253740000Y-131890000D03*
%TD*%
D16*
%TO.C,C48*%
X180400000Y-56300000D03*
X178850000Y-56300000D03*
%TD*%
D21*
%TO.C,R11*%
X221475000Y-90937500D03*
X223125000Y-90937500D03*
%TD*%
D36*
%TO.C,F1*%
X209250000Y-42700000D03*
D41*
X208000000Y-49100000D03*
X210500000Y-49100000D03*
X208000000Y-45600000D03*
X210500000Y-45600000D03*
X208000000Y-39800000D03*
X210500000Y-39800000D03*
X208000000Y-36300000D03*
X210500000Y-36300000D03*
%TD*%
D25*
%TO.C,R1*%
X240700000Y-85637500D03*
X240700000Y-88562500D03*
%TD*%
D18*
%TO.C,R64*%
X152110000Y-55800000D03*
X150460000Y-55800000D03*
%TD*%
D17*
%TO.C,C13*%
X207025000Y-88700000D03*
X208575000Y-88700000D03*
%TD*%
%TO.C,C26*%
X221825000Y-101900000D03*
X223375000Y-101900000D03*
%TD*%
D42*
%TO.C,R63*%
X149260000Y-53300000D03*
X152185000Y-53300000D03*
%TD*%
D26*
%TO.C,C63*%
X236300000Y-62950000D03*
X236300000Y-60000000D03*
%TD*%
D43*
%TO.C,D7*%
X198980000Y-41000000D03*
X198980000Y-43100000D03*
%TD*%
D32*
%TO.C,Q4*%
X232060000Y-78850000D03*
D33*
X230155000Y-82225000D03*
X231425000Y-82225000D03*
X232694999Y-82225000D03*
X233964999Y-82225000D03*
%TD*%
D18*
%TO.C,R40*%
X171900000Y-130200000D03*
X170250000Y-130200000D03*
%TD*%
D11*
%TO.C,R67*%
X164685000Y-53200000D03*
X164685000Y-54850000D03*
%TD*%
D44*
%TO.C,L1*%
X228000000Y-118200000D03*
X228000000Y-127900000D03*
%TD*%
D16*
%TO.C,C28*%
X243150000Y-106700000D03*
X241600000Y-106700000D03*
%TD*%
D32*
%TO.C,Q5*%
X214060000Y-68850000D03*
D33*
X212155000Y-72225000D03*
X213425000Y-72225000D03*
X214694999Y-72225000D03*
X215964999Y-72225000D03*
%TD*%
D21*
%TO.C,R41*%
X161450000Y-130200000D03*
X163100000Y-130200000D03*
%TD*%
D18*
%TO.C,R66*%
X172125000Y-53100000D03*
X170475000Y-53100000D03*
%TD*%
D39*
%TO.C,C57*%
X167785000Y-51525000D03*
X167785000Y-53075000D03*
%TD*%
D18*
%TO.C,R59*%
X176600000Y-54000000D03*
X174950000Y-54000000D03*
%TD*%
D20*
%TO.C,R16*%
X250400000Y-85537500D03*
X250400000Y-91462500D03*
%TD*%
D32*
%TO.C,Q3*%
X232060000Y-68850000D03*
D33*
X230155000Y-72225000D03*
X231425000Y-72225000D03*
X232694999Y-72225000D03*
X233964999Y-72225000D03*
%TD*%
D26*
%TO.C,C59*%
X254060000Y-62975000D03*
X254060000Y-60025000D03*
%TD*%
D16*
%TO.C,C65*%
X135500000Y-57600000D03*
X133950000Y-57600000D03*
%TD*%
D34*
%TO.C,C54*%
X186000000Y-41200000D03*
X186000000Y-44150000D03*
%TD*%
D19*
%TO.C,C53*%
X165385000Y-50675000D03*
X165385000Y-49125000D03*
%TD*%
D21*
%TO.C,R60*%
X178800000Y-54100000D03*
X180450000Y-54100000D03*
%TD*%
D19*
%TO.C,C36*%
X235500000Y-119150000D03*
X235500000Y-117600000D03*
%TD*%
D45*
%TO.C,J10*%
X124400000Y-43500000D03*
D46*
X124400000Y-46000000D03*
X124400000Y-48500000D03*
%TD*%
D21*
%TO.C,R36*%
X234175000Y-110900000D03*
X235825000Y-110900000D03*
%TD*%
D47*
%TO.C,U5*%
X132860000Y-54550000D03*
X134130000Y-54550000D03*
X135400000Y-54550000D03*
X136670000Y-54550000D03*
X136670000Y-49600000D03*
X135400000Y-49600000D03*
X134130000Y-49600000D03*
X132860000Y-49600000D03*
%TD*%
D13*
%TO.C,C18*%
X210060000Y-62975000D03*
X210060000Y-60025000D03*
%TD*%
D48*
%TO.C,JP1*%
X135000000Y-43600000D03*
D49*
X136300000Y-43600000D03*
%TD*%
D39*
%TO.C,C25*%
X235400000Y-85500000D03*
X235400000Y-87050000D03*
%TD*%
D17*
%TO.C,C46*%
X184825000Y-118800000D03*
X186375000Y-118800000D03*
%TD*%
%TO.C,C56*%
X170425000Y-51200000D03*
X171975000Y-51200000D03*
%TD*%
D50*
%TO.C,J6*%
X205100000Y-75500000D03*
D51*
X223100000Y-75500000D03*
X241100000Y-75500000D03*
%TD*%
D35*
%TO.C,C11*%
X240700000Y-48700000D03*
D36*
X248200000Y-48700000D03*
%TD*%
D16*
%TO.C,C37*%
X232675000Y-110900000D03*
X231125000Y-110900000D03*
%TD*%
D52*
%TO.C,L2*%
X167550000Y-40800000D03*
X177250000Y-40800000D03*
%TD*%
D28*
%TO.C,J8*%
X189100000Y-35100000D03*
D29*
X191600000Y-35100000D03*
X194100000Y-35100000D03*
X196600000Y-35100000D03*
X199100000Y-35100000D03*
%TD*%
D53*
%TO.C,U3*%
X201420002Y-117900000D03*
X201420002Y-118400000D03*
D54*
X201420002Y-118900000D03*
D53*
X201420002Y-119400000D03*
X201420002Y-119900000D03*
X202200000Y-119900000D03*
X202200000Y-119400000D03*
D54*
X202200000Y-118900000D03*
D53*
X202200000Y-118400000D03*
X202200000Y-117900000D03*
%TD*%
D13*
%TO.C,C19*%
X232300000Y-62950000D03*
X232300000Y-60000000D03*
%TD*%
D55*
%TO.C,D2*%
X229000000Y-112500000D03*
D56*
X229000000Y-114875000D03*
%TD*%
D12*
%TO.C,H2*%
X252500000Y-36000000D03*
%TD*%
D39*
%TO.C,C64*%
X164280000Y-66300000D03*
X164280000Y-67850000D03*
%TD*%
D57*
%TO.C,D9*%
X130125000Y-43650000D03*
X130125000Y-45550000D03*
X132000000Y-44600000D03*
%TD*%
D21*
%TO.C,R62*%
X217375000Y-129925000D03*
X219025000Y-129925000D03*
%TD*%
D58*
%TO.C,J5*%
X231800000Y-36300000D03*
D51*
X219800000Y-36300000D03*
%TD*%
D43*
%TO.C,D6*%
X196380000Y-41000000D03*
X196380000Y-43100000D03*
%TD*%
D14*
%TO.C,R57*%
X189600000Y-117050000D03*
X189600000Y-115400000D03*
%TD*%
D32*
%TO.C,Q6*%
X214060000Y-78850000D03*
D33*
X212155000Y-82225000D03*
X213425000Y-82225000D03*
X214694999Y-82225000D03*
X215964999Y-82225000D03*
%TD*%
D17*
%TO.C,C44*%
X181525000Y-118800000D03*
X183075000Y-118800000D03*
%TD*%
D16*
%TO.C,C32*%
X229600000Y-110000000D03*
X228050000Y-110000000D03*
%TD*%
D42*
%TO.C,R68*%
X167375000Y-49000000D03*
X170300000Y-49000000D03*
%TD*%
D26*
%TO.C,C62*%
X240300000Y-62950000D03*
X240300000Y-60000000D03*
%TD*%
%TO.C,C58*%
X250060000Y-62975000D03*
X250060000Y-60025000D03*
%TD*%
D20*
%TO.C,R15*%
X232200000Y-85537500D03*
X232200000Y-91462500D03*
%TD*%
D21*
%TO.C,R29*%
X237775000Y-109900000D03*
X239425000Y-109900000D03*
%TD*%
D25*
%TO.C,R2*%
X222300000Y-85837500D03*
X222300000Y-88762500D03*
%TD*%
D26*
%TO.C,C61*%
X214060000Y-62975000D03*
X214060000Y-60025000D03*
%TD*%
D40*
%TO.C,C35*%
X231400000Y-112502500D03*
X231400000Y-114402500D03*
%TD*%
D59*
%TO.C,U4*%
X157180000Y-49295000D03*
X157180000Y-50565000D03*
X157180000Y-51835000D03*
X157180000Y-53105000D03*
X162480000Y-53105000D03*
X162480000Y-51835000D03*
X162480000Y-50565000D03*
X162480000Y-49295000D03*
D60*
X159830000Y-51200000D03*
%TD*%
D21*
%TO.C,R7*%
X239875000Y-90637500D03*
X241525000Y-90637500D03*
%TD*%
D43*
%TO.C,D5*%
X193880000Y-41000000D03*
X193880000Y-43100000D03*
%TD*%
D39*
%TO.C,C23*%
X253300000Y-85600000D03*
X253300000Y-87150000D03*
%TD*%
D28*
%TO.C,J7*%
X207100000Y-130100000D03*
D29*
X209600000Y-130100000D03*
X212100000Y-130100000D03*
%TD*%
D27*
%TO.C,R34*%
X236300000Y-115625000D03*
X236300000Y-112700000D03*
%TD*%
D39*
%TO.C,C22*%
X217300000Y-85600000D03*
X217300000Y-87150000D03*
%TD*%
D14*
%TO.C,R69*%
X166100000Y-67900000D03*
X166100000Y-66250000D03*
%TD*%
D15*
%TO.C,D3*%
X165925000Y-130200000D03*
X167500000Y-130200000D03*
%TD*%
D14*
%TO.C,R55*%
X183100000Y-116950000D03*
X183100000Y-115300000D03*
%TD*%
D16*
%TO.C,C29*%
X239075000Y-108300000D03*
X237525000Y-108300000D03*
%TD*%
D11*
%TO.C,R72*%
X136100000Y-45600000D03*
X136100000Y-47250000D03*
%TD*%
D14*
%TO.C,R70*%
X133400000Y-123400000D03*
X133400000Y-121750000D03*
%TD*%
D34*
%TO.C,C55*%
X182900000Y-41200000D03*
X182900000Y-44150000D03*
%TD*%
M02*
