M48
; DRILL file KiCad 10.0.3 date 2026-09-28T13:34:28
; FORMAT={-:-/ absolute / metric / decimal}
; #@! TF.CreationDate,2026-09-28T13:34:28+02:00
; #@! TF.GenerationSoftware,Kicad,Pcbnew,10.0.3
; #@! TF.FileFunction,Plated,1,4,PTH
FMAT,2
METRIC
; #@! TA.AperFunction,Plated,PTH,ComponentDrill
T1C0.200
; #@! TA.AperFunction,Plated,PTH,ViaDrill
T2C0.300
; #@! TA.AperFunction,Plated,PTH,ViaDrill
T3C0.400
; #@! TA.AperFunction,Plated,PTH,ComponentDrill
T4C1.000
; #@! TA.AperFunction,Plated,PTH,ComponentDrill
T5C1.200
; #@! TA.AperFunction,Plated,PTH,ComponentDrill
T6C1.400
; #@! TA.AperFunction,Plated,PTH,ComponentDrill
T7C3.750
%
G90
G05
T1
X158.875Y-49.9
X158.875Y-51.2
X158.875Y-52.5
X160.785Y-49.9
X160.785Y-51.2
X160.785Y-52.5
T2
X132.0Y-46.4
X132.3Y-47.9
X138.4Y-55.2
X138.6Y-57.4
X141.137Y-55.468
X149.16Y-55.8
X149.69Y-46.12
X153.59Y-46.02
X154.69Y-57.25
X155.9Y-51.2
X155.92Y-48.39
X159.83Y-48.75
X159.83Y-53.65
X164.4Y-130.2
X164.69Y-56.15
X167.9Y-66.2
X168.3Y-56.4
X168.784Y-66.235
X168.9Y-70.0
X168.95Y-130.2
X170.7Y-70.0
X171.611Y-126.189
X177.7Y-54.1
X177.82Y-56.3
X178.19Y-55.16
X180.18Y-118.8
X182.9Y-45.62
X184.17Y-117.66
X185.61Y-75.1
X185.8Y-76.8
X186.0Y-45.62
X188.5Y-56.3
X188.5Y-80.5
X188.68Y-119.94
X188.8Y-81.8
X190.0Y-54.3
X192.5Y-71.2
X193.224Y-82.876
X193.3Y-75.8
X200.4Y-62.9
X200.45Y-60.4
X201.4Y-88.6
X201.4Y-125.3
X201.8Y-98.6
X203.0Y-99.3
X205.2Y-51.8
X205.6Y-101.3
X206.6Y-97.5
X206.975Y-93.875
X207.0Y-85.8
X207.8Y-97.6
X208.5Y-120.95
X212.9Y-92.545
X213.75Y-92.545
X214.65Y-92.545
X215.5Y-92.545
X215.7Y-103.4
X216.7Y-104.5
X217.1Y-72.3
X217.3Y-88.5
X218.5Y-110.2
X218.9Y-102.6
X219.9Y-110.3
X220.32Y-132.32
X220.33Y-129.93
X220.47Y-101.9
X220.9Y-58.4
X222.05Y-58.4
X222.5Y-94.2
X223.2Y-58.4
X223.25Y-61.0
X223.25Y-62.9
X224.42Y-93.04
X224.43Y-90.94
X225.2Y-102.6
X226.0Y-103.2
X226.3Y-101.3
X226.5Y-82.7
X226.7Y-103.75
X226.7Y-110.0
X226.9Y-116.25
X227.3Y-98.6
X227.413Y-99.392
X229.68Y-116.05
X230.2Y-96.2
X230.722Y-102.5
X230.722Y-104.1
X230.722Y-105.7
X230.9Y-92.545
X231.4Y-115.8
X231.75Y-92.545
X231.75Y-109.6
X231.8Y-96.7
X232.322Y-102.5
X232.322Y-104.1
X232.322Y-105.7
X232.65Y-92.545
X232.947Y-98.044
X233.0Y-95.8
X233.5Y-92.545
X233.9Y-117.9
X233.922Y-102.5
X233.922Y-104.1
X233.922Y-105.7
X234.2Y-95.7
X234.4Y-116.76
X234.9Y-82.3
X235.129Y-109.85
X235.4Y-88.4
X235.8Y-97.6
X236.4Y-85.4
X237.02Y-120.14
X238.081Y-101.092
X238.4Y-99.6
X238.45Y-98.802
X239.8Y-98.9
X239.9Y-93.9
X239.9Y-104.6
X240.42Y-108.3
X240.73Y-109.9
X242.75Y-92.54
X242.83Y-90.64
X244.5Y-106.7
X249.1Y-92.545
X249.95Y-92.545
X250.85Y-92.545
X251.7Y-92.545
X253.3Y-88.5
X253.4Y-84.2
X253.6Y-82.2
T3
X138.5Y-127.7
X161.5Y-118.8
X172.7Y-57.7
X199.9Y-119.2
X203.6Y-118.9
X209.16Y-58.2
X211.21Y-58.2
X213.1Y-93.4
X213.26Y-58.2
X214.2Y-93.4
X215.3Y-93.4
X215.31Y-58.2
X217.36Y-58.2
X219.41Y-58.2
X231.1Y-93.4
X231.4Y-58.2
X232.2Y-93.4
X233.3Y-93.4
X233.45Y-58.2
X235.5Y-58.2
X237.55Y-58.2
X239.6Y-58.2
X241.65Y-58.2
X245.16Y-58.2
X247.21Y-58.2
X249.26Y-58.2
X249.3Y-93.4
X250.4Y-93.4
X251.31Y-58.2
X251.5Y-93.4
X253.36Y-58.2
X255.41Y-58.2
T4
X124.4Y-43.5
X124.4Y-46.0
X124.4Y-48.5
X131.0Y-131.0
X133.5Y-131.0
X136.0Y-131.0
X138.5Y-131.0
X150.84Y-60.54
X150.84Y-63.08
X150.84Y-121.5
X150.84Y-124.04
X153.38Y-60.54
X153.38Y-63.08
X153.38Y-121.5
X153.38Y-124.04
X155.92Y-60.54
X155.92Y-63.08
X155.92Y-121.5
X155.92Y-124.04
X158.46Y-60.54
X158.46Y-63.08
X158.46Y-121.5
X158.46Y-124.04
X161.0Y-60.54
X161.0Y-63.08
X161.0Y-121.5
X161.0Y-124.04
X163.54Y-60.54
X163.54Y-63.08
X163.54Y-121.5
X163.54Y-124.04
X166.08Y-60.54
X166.08Y-63.08
X166.08Y-121.5
X166.08Y-124.04
X168.62Y-60.54
X168.62Y-63.08
X168.62Y-121.5
X168.62Y-124.04
X171.16Y-60.54
X171.16Y-63.08
X171.16Y-121.5
X171.16Y-124.04
X173.7Y-60.54
X173.7Y-63.08
X173.7Y-121.5
X173.7Y-124.04
X176.24Y-60.54
X176.24Y-63.08
X176.24Y-121.5
X176.24Y-124.04
X178.78Y-60.54
X178.78Y-63.08
X178.78Y-121.5
X178.78Y-124.04
X181.32Y-60.54
X181.32Y-63.08
X181.32Y-121.5
X181.32Y-124.04
X183.86Y-60.54
X183.86Y-63.08
X183.86Y-121.5
X183.86Y-124.04
X186.4Y-60.54
X186.4Y-63.08
X186.4Y-121.5
X186.4Y-124.04
X188.94Y-60.54
X188.94Y-63.08
X188.94Y-121.5
X188.94Y-124.04
X189.1Y-35.1
X191.48Y-60.54
X191.48Y-63.08
X191.48Y-121.5
X191.48Y-124.04
X191.6Y-35.1
X194.02Y-60.54
X194.02Y-63.08
X194.02Y-121.5
X194.02Y-124.04
X194.1Y-35.1
X196.56Y-60.54
X196.56Y-63.08
X196.56Y-121.5
X196.56Y-124.04
X196.6Y-35.1
X199.1Y-35.1
X207.1Y-130.1
X209.6Y-130.1
X212.1Y-130.1
T5
X222.3Y-49.3
X229.8Y-49.3
X240.7Y-48.7
X248.2Y-48.7
T6
X208.0Y-36.3
X208.0Y-39.8
X208.0Y-45.6
X208.0Y-49.1
X210.5Y-36.3
X210.5Y-39.8
X210.5Y-45.6
X210.5Y-49.1
T7
X205.1Y-75.5
X219.8Y-36.3
X223.1Y-75.5
X231.8Y-36.3
X241.1Y-75.5
M30
